<?xml version="1.0" ?><svg viewBox="0 0 296.59 438.87" xmlns="http://www.w3.org/2000/svg"><title/><g data-name="Layer 2" id="Layer_2"><g data-name="support, computer, help, communication, call, operator, phone, service, center, assistant" id="support_computer_help_communication_call_operator_phone_service_center_assistant"><path d="M223,325.49a5.36,5.36,0,0,0-7.36-1.81L189,339.84a5.41,5.41,0,0,0-2.47,3.51,5.34,5.34,0,0,0,.89,4.19L204.11,371c-6.26,7.24-24.64,26.27-55.81,40.58C117.25,397.32,98.77,378.24,92.49,371l16.74-23.45a5.38,5.38,0,0,0-1.59-7.7L81,323.68a5.36,5.36,0,1,0-5.56,9.17L97.14,346l-15.76,22.1a5.34,5.34,0,0,0,.05,6.29c.86,1.17,21.59,28.84,64.69,48a5.37,5.37,0,0,0,2.18.46,5.29,5.29,0,0,0,2.17-.46c43.1-19.12,63.83-46.79,64.69-48a5.34,5.34,0,0,0,.05-6.29L199.45,346l21.7-13.16A5.35,5.35,0,0,0,223,325.49Z"/><path d="M0,433.51a5.36,5.36,0,0,0,5.36,5.36H291.23a5.36,5.36,0,0,0,5.36-5.36v-10A145.74,145.74,0,0,0,225.67,298.4a5.36,5.36,0,0,0-5.51,9.2,135.88,135.88,0,0,1,65.71,115.93v4.61H10.72v-4.61A135.17,135.17,0,0,1,81,305a5.36,5.36,0,0,0-5.16-9.4A145.88,145.88,0,0,0,0,423.53Z"/><path d="M148.3,0A108.82,108.82,0,0,0,39.61,108.69V213.31a29.85,29.85,0,0,0,29.82,29.82H82.81a5.36,5.36,0,1,0,0-10.72H69.43a19.12,19.12,0,0,1-19.1-19.1V108.69a98,98,0,0,1,195.85-4.15,5.36,5.36,0,0,0,10.71-.45A108.39,108.39,0,0,0,148.3,0Z"/><path d="M257,148.48v-8.37a23.93,23.93,0,0,0-23.9-23.91H223a5.5,5.5,0,0,0-1.95-.37c-63.44,0-80.92-46.62-81.62-48.59a5.38,5.38,0,0,0-5-3.58h0a5.37,5.37,0,0,0-5,3.54C114.52,108.13,81,115.64,79.61,115.93a5.37,5.37,0,0,0-4.28,5.26v46.39a75.59,75.59,0,0,0,37.16,65V270.2a12.45,12.45,0,0,1-2.62,7.62l-4.18,5.38a23.24,23.24,0,0,0-2.47,24.47L143.49,389a5.36,5.36,0,0,0,9.61,0l40.28-81.28a23,23,0,0,0,1.45-16.83,5.36,5.36,0,0,0-10.28,3,12.34,12.34,0,0,1-.78,9L148.3,374.5l-35.48-71.59a12.47,12.47,0,0,1,1.33-13.13l4.18-5.38a23.17,23.17,0,0,0,4.88-14.2V237.86a75.48,75.48,0,0,0,103-65.47h6.83A23.93,23.93,0,0,0,257,148.48ZM215.7,167v.55A64.81,64.81,0,0,1,123,226.1a5.35,5.35,0,0,0-5.15-4,5.23,5.23,0,0,0-1.54.25,64.82,64.82,0,0,1-30.26-54.81V125.25c9.79-3.16,33.9-13.69,48.73-43.53a90.62,90.62,0,0,0,13.56,17.19c12.08,12,33.4,26.17,67.36,27.53Zm30.56-18.55a13.19,13.19,0,0,1-13.18,13.19h-6.66V126.93h6.66a13.19,13.19,0,0,1,13.18,13.18Z"/><path d="M163.84,249.26h-5.73a19.21,19.21,0,0,0-19.19,19.19V275a5.36,5.36,0,0,0,5.36,5.36H192.8A49.35,49.35,0,0,0,242.09,231V198.15a5.37,5.37,0,0,0-10.73,0V231A38.61,38.61,0,0,1,192.8,269.6H183v-1.15A19.21,19.21,0,0,0,163.84,249.26Zm8.47,20.34H149.64v-1.15a8.48,8.48,0,0,1,8.47-8.47h5.73a8.48,8.48,0,0,1,8.47,8.47Z"/></g></g></svg>